<svg width="70" height="70" viewBox="0 0 70 70" fill="none" xmlns="http://www.w3.org/2000/svg">
<rect width="70" height="70" rx="15" fill="#149211" fill-opacity="0.28"/>
<path d="M34.4078 46.9168C34.287 46.9166 34.1672 46.8955 34.0537 46.8543C33.8346 46.7741 33.6489 46.6227 33.5261 46.4244C33.4033 46.2261 33.3507 45.9923 33.3766 45.7605L34.1787 38.3751H28.0432C27.854 38.3754 27.6683 38.3241 27.506 38.2268C27.3437 38.1295 27.2109 37.9898 27.1221 37.8227C27.0332 37.6556 26.9915 37.4675 27.0014 37.2786C27.0114 37.0896 27.0727 36.9069 27.1787 36.7501L35.3974 24.4584C35.5274 24.2661 35.7179 24.1227 35.9387 24.0509C36.1595 23.9792 36.3979 23.9833 36.6162 24.0626C36.8259 24.1405 37.005 24.2838 37.127 24.4714C37.2489 24.6591 37.3072 24.8809 37.2932 25.1043L36.4912 32.5418H42.6266C42.8158 32.5415 43.0015 32.5928 43.1638 32.6901C43.3261 32.7874 43.4589 32.9271 43.5477 33.0942C43.6366 33.2612 43.6783 33.4493 43.6684 33.6383C43.6584 33.8273 43.5971 34.01 43.4912 34.1668L35.2724 46.4584C35.1769 46.5998 35.048 46.7155 34.8973 46.7954C34.7465 46.8754 34.5784 46.917 34.4078 46.9168ZM29.9912 36.2918H35.3349C35.4803 36.2921 35.6239 36.3229 35.7567 36.3821C35.8895 36.4413 36.0083 36.5276 36.1057 36.6355C36.204 36.7449 36.2781 36.8738 36.3229 37.0139C36.3678 37.1539 36.3826 37.3019 36.3662 37.448L35.8974 41.7709L40.6787 34.6251H35.3349C35.1879 34.626 35.0424 34.5958 34.9079 34.5364C34.7734 34.477 34.6531 34.3899 34.5547 34.2807C34.4563 34.1715 34.3821 34.0427 34.3371 33.9027C34.292 33.7628 34.2771 33.615 34.2932 33.4689L34.762 29.1459L29.9912 36.2918Z" fill="#149211"/>
</svg>
